<mxfile host="app.diagrams.net" agent="Mozilla/5.0 (Windows NT 10.0; Win64; x64) AppleWebKit/537.36 (KHTML, like Gecko) Chrome/134.0.0.0 Safari/537.36" version="26.1.1">
  <diagram name="Страница — 1" id="Gc8w_xLvkjC7MFgl7PAz">
    <mxGraphModel dx="1430" dy="781" grid="1" gridSize="10" guides="1" tooltips="1" connect="1" arrows="1" fold="1" page="1" pageScale="1" pageWidth="827" pageHeight="1169" math="0" shadow="0">
      <root>
        <mxCell id="0" />
        <mxCell id="1" parent="0" />
        <mxCell id="8zqK-wX07eK1b1NDQU6Q-32" style="edgeStyle=orthogonalEdgeStyle;rounded=0;orthogonalLoop=1;jettySize=auto;html=1;exitX=1;exitY=0.5;exitDx=0;exitDy=0;entryX=0;entryY=0.5;entryDx=0;entryDy=0;endArrow=ERone;endFill=0;startArrow=ERone;startFill=0;" parent="1" source="ubvoqZsbdTk1Toc_hSM9-12" target="8zqK-wX07eK1b1NDQU6Q-31" edge="1">
          <mxGeometry relative="1" as="geometry">
            <mxPoint x="430" y="459.9999999999999" as="sourcePoint" />
          </mxGeometry>
        </mxCell>
        <mxCell id="j9M38D2zPkjRZAN_-BtN-9" style="edgeStyle=orthogonalEdgeStyle;rounded=0;orthogonalLoop=1;jettySize=auto;html=1;exitX=0.5;exitY=1;exitDx=0;exitDy=0;entryX=0.5;entryY=0;entryDx=0;entryDy=0;endArrow=none;endFill=0;" parent="1" source="j9M38D2zPkjRZAN_-BtN-2" target="ubvoqZsbdTk1Toc_hSM9-12" edge="1">
          <mxGeometry relative="1" as="geometry">
            <mxPoint x="385.5" y="439.9999999999999" as="targetPoint" />
          </mxGeometry>
        </mxCell>
        <mxCell id="j9M38D2zPkjRZAN_-BtN-2" value="Дата оформления" style="ellipse;whiteSpace=wrap;html=1;" parent="1" vertex="1">
          <mxGeometry x="330.5" y="355" width="110" height="50" as="geometry" />
        </mxCell>
        <mxCell id="j9M38D2zPkjRZAN_-BtN-4" value="Общая стоимость" style="ellipse;whiteSpace=wrap;html=1;" parent="1" vertex="1">
          <mxGeometry x="425.5" y="395" width="80" height="50" as="geometry" />
        </mxCell>
        <mxCell id="j9M38D2zPkjRZAN_-BtN-11" style="edgeStyle=orthogonalEdgeStyle;rounded=0;orthogonalLoop=1;jettySize=auto;html=1;exitX=0;exitY=0.5;exitDx=0;exitDy=0;endArrow=none;endFill=0;entryX=0.68;entryY=1;entryDx=0;entryDy=0;entryPerimeter=0;" parent="1" source="j9M38D2zPkjRZAN_-BtN-5" target="ubvoqZsbdTk1Toc_hSM9-12" edge="1">
          <mxGeometry relative="1" as="geometry">
            <mxPoint x="405.5" y="490" as="targetPoint" />
          </mxGeometry>
        </mxCell>
        <mxCell id="j9M38D2zPkjRZAN_-BtN-5" value="Статус" style="ellipse;whiteSpace=wrap;html=1;" parent="1" vertex="1">
          <mxGeometry x="425.5" y="480" width="60" height="40" as="geometry" />
        </mxCell>
        <mxCell id="j9M38D2zPkjRZAN_-BtN-10" style="edgeStyle=orthogonalEdgeStyle;rounded=0;orthogonalLoop=1;jettySize=auto;html=1;exitX=1;exitY=0.5;exitDx=0;exitDy=0;entryX=0.304;entryY=1.003;entryDx=0;entryDy=0;endArrow=none;endFill=0;entryPerimeter=0;" parent="1" source="j9M38D2zPkjRZAN_-BtN-6" target="ubvoqZsbdTk1Toc_hSM9-12" edge="1">
          <mxGeometry relative="1" as="geometry">
            <mxPoint x="365.5" y="479.9999999999999" as="targetPoint" />
          </mxGeometry>
        </mxCell>
        <mxCell id="j9M38D2zPkjRZAN_-BtN-6" value="ID" style="ellipse;whiteSpace=wrap;html=1;" parent="1" vertex="1">
          <mxGeometry x="285.5" y="482.5" width="60" height="35" as="geometry" />
        </mxCell>
        <mxCell id="j9M38D2zPkjRZAN_-BtN-8" style="edgeStyle=orthogonalEdgeStyle;rounded=0;orthogonalLoop=1;jettySize=auto;html=1;exitX=0;exitY=0.5;exitDx=0;exitDy=0;entryX=0.625;entryY=0;entryDx=0;entryDy=0;endArrow=none;endFill=0;" parent="1" source="j9M38D2zPkjRZAN_-BtN-4" target="ubvoqZsbdTk1Toc_hSM9-12" edge="1">
          <mxGeometry relative="1" as="geometry">
            <mxPoint x="412.14" y="439.9599999999999" as="targetPoint" />
          </mxGeometry>
        </mxCell>
        <mxCell id="8zqK-wX07eK1b1NDQU6Q-29" style="edgeStyle=orthogonalEdgeStyle;rounded=0;orthogonalLoop=1;jettySize=auto;html=1;exitX=1;exitY=0.5;exitDx=0;exitDy=0;entryX=0;entryY=0.5;entryDx=0;entryDy=0;endArrow=ERoneToMany;endFill=0;startArrow=ERone;startFill=0;" parent="1" source="j9M38D2zPkjRZAN_-BtN-14" edge="1">
          <mxGeometry relative="1" as="geometry">
            <Array as="points">
              <mxPoint x="260" y="380" />
              <mxPoint x="260" y="460" />
            </Array>
            <mxPoint x="350" y="459.9999999999999" as="targetPoint" />
          </mxGeometry>
        </mxCell>
        <mxCell id="j9M38D2zPkjRZAN_-BtN-14" value="Физ. лицо" style="rounded=0;whiteSpace=wrap;html=1;" parent="1" vertex="1">
          <mxGeometry x="120" y="360" width="70" height="40" as="geometry" />
        </mxCell>
        <mxCell id="8zqK-wX07eK1b1NDQU6Q-30" style="edgeStyle=orthogonalEdgeStyle;rounded=0;orthogonalLoop=1;jettySize=auto;html=1;exitX=1;exitY=0.5;exitDx=0;exitDy=0;endArrow=none;endFill=0;startArrow=ERone;startFill=0;" parent="1" source="j9M38D2zPkjRZAN_-BtN-15" edge="1">
          <mxGeometry relative="1" as="geometry">
            <mxPoint x="260" y="460" as="targetPoint" />
          </mxGeometry>
        </mxCell>
        <mxCell id="j9M38D2zPkjRZAN_-BtN-15" value="Юр. лицо" style="rounded=0;whiteSpace=wrap;html=1;" parent="1" vertex="1">
          <mxGeometry x="135" y="547.5" width="70" height="40" as="geometry" />
        </mxCell>
        <mxCell id="8zqK-wX07eK1b1NDQU6Q-21" style="edgeStyle=orthogonalEdgeStyle;rounded=0;orthogonalLoop=1;jettySize=auto;html=1;exitX=0;exitY=0.5;exitDx=0;exitDy=0;entryX=0.639;entryY=1.002;entryDx=0;entryDy=0;endArrow=none;endFill=0;entryPerimeter=0;" parent="1" source="j9M38D2zPkjRZAN_-BtN-16" target="j9M38D2zPkjRZAN_-BtN-14" edge="1">
          <mxGeometry relative="1" as="geometry" />
        </mxCell>
        <mxCell id="j9M38D2zPkjRZAN_-BtN-16" value="Адрес доставки" style="ellipse;whiteSpace=wrap;html=1;" parent="1" vertex="1">
          <mxGeometry x="190" y="415" width="65" height="50" as="geometry" />
        </mxCell>
        <mxCell id="8zqK-wX07eK1b1NDQU6Q-19" style="edgeStyle=orthogonalEdgeStyle;rounded=0;orthogonalLoop=1;jettySize=auto;html=1;exitX=1;exitY=0.5;exitDx=0;exitDy=0;entryX=0;entryY=0.5;entryDx=0;entryDy=0;endArrow=none;endFill=0;" parent="1" source="j9M38D2zPkjRZAN_-BtN-17" target="j9M38D2zPkjRZAN_-BtN-14" edge="1">
          <mxGeometry relative="1" as="geometry" />
        </mxCell>
        <mxCell id="j9M38D2zPkjRZAN_-BtN-17" value="ФИО" style="ellipse;whiteSpace=wrap;html=1;" parent="1" vertex="1">
          <mxGeometry x="35" y="360" width="50" height="40" as="geometry" />
        </mxCell>
        <mxCell id="sLi8n0fQwu9TduTDUcF7-1" style="edgeStyle=orthogonalEdgeStyle;rounded=0;orthogonalLoop=1;jettySize=auto;html=1;exitX=1;exitY=0.5;exitDx=0;exitDy=0;entryX=0.375;entryY=0;entryDx=0;entryDy=0;endArrow=none;endFill=0;" parent="1" source="j9M38D2zPkjRZAN_-BtN-19" target="ubvoqZsbdTk1Toc_hSM9-12" edge="1">
          <mxGeometry relative="1" as="geometry" />
        </mxCell>
        <mxCell id="j9M38D2zPkjRZAN_-BtN-19" value="&lt;u&gt;Номер заказа&lt;/u&gt;" style="ellipse;whiteSpace=wrap;html=1;" parent="1" vertex="1">
          <mxGeometry x="285.5" y="395" width="60" height="50" as="geometry" />
        </mxCell>
        <mxCell id="8zqK-wX07eK1b1NDQU6Q-20" style="edgeStyle=orthogonalEdgeStyle;rounded=0;orthogonalLoop=1;jettySize=auto;html=1;exitX=1;exitY=0.5;exitDx=0;exitDy=0;entryX=0.353;entryY=1.012;entryDx=0;entryDy=0;endArrow=none;endFill=0;entryPerimeter=0;" parent="1" source="j9M38D2zPkjRZAN_-BtN-20" target="j9M38D2zPkjRZAN_-BtN-14" edge="1">
          <mxGeometry relative="1" as="geometry" />
        </mxCell>
        <mxCell id="j9M38D2zPkjRZAN_-BtN-20" value="&lt;u&gt;Серия и номер паспорта&lt;/u&gt;" style="ellipse;whiteSpace=wrap;html=1;" parent="1" vertex="1">
          <mxGeometry x="30" y="410" width="90" height="60" as="geometry" />
        </mxCell>
        <mxCell id="8zqK-wX07eK1b1NDQU6Q-9" style="edgeStyle=orthogonalEdgeStyle;rounded=0;orthogonalLoop=1;jettySize=auto;html=1;exitX=1;exitY=0.5;exitDx=0;exitDy=0;entryX=0.25;entryY=0;entryDx=0;entryDy=0;endArrow=none;endFill=0;" parent="1" source="j9M38D2zPkjRZAN_-BtN-21" target="j9M38D2zPkjRZAN_-BtN-14" edge="1">
          <mxGeometry relative="1" as="geometry" />
        </mxCell>
        <mxCell id="j9M38D2zPkjRZAN_-BtN-21" value="ID" style="ellipse;whiteSpace=wrap;html=1;" parent="1" vertex="1">
          <mxGeometry x="75" y="325" width="45" height="35" as="geometry" />
        </mxCell>
        <mxCell id="8zqK-wX07eK1b1NDQU6Q-26" style="edgeStyle=orthogonalEdgeStyle;rounded=0;orthogonalLoop=1;jettySize=auto;html=1;exitX=1;exitY=0.5;exitDx=0;exitDy=0;entryX=0;entryY=0.5;entryDx=0;entryDy=0;endArrow=none;endFill=0;" parent="1" source="8zqK-wX07eK1b1NDQU6Q-1" target="j9M38D2zPkjRZAN_-BtN-15" edge="1">
          <mxGeometry relative="1" as="geometry" />
        </mxCell>
        <mxCell id="8zqK-wX07eK1b1NDQU6Q-1" value="Адрес доставки" style="ellipse;whiteSpace=wrap;html=1;" parent="1" vertex="1">
          <mxGeometry x="40" y="545" width="70" height="45" as="geometry" />
        </mxCell>
        <mxCell id="8zqK-wX07eK1b1NDQU6Q-28" style="edgeStyle=orthogonalEdgeStyle;rounded=0;orthogonalLoop=1;jettySize=auto;html=1;exitX=0;exitY=0.5;exitDx=0;exitDy=0;entryX=0.64;entryY=1.024;entryDx=0;entryDy=0;endArrow=none;endFill=0;entryPerimeter=0;" parent="1" source="8zqK-wX07eK1b1NDQU6Q-2" target="j9M38D2zPkjRZAN_-BtN-15" edge="1">
          <mxGeometry relative="1" as="geometry">
            <Array as="points">
              <mxPoint x="180" y="637.5" />
              <mxPoint x="180" y="587.5" />
              <mxPoint x="180" y="587.5" />
            </Array>
          </mxGeometry>
        </mxCell>
        <mxCell id="8zqK-wX07eK1b1NDQU6Q-2" value="Номер телефона" style="ellipse;whiteSpace=wrap;html=1;" parent="1" vertex="1">
          <mxGeometry x="191.25" y="607.5" width="70" height="60" as="geometry" />
        </mxCell>
        <mxCell id="8zqK-wX07eK1b1NDQU6Q-11" style="edgeStyle=orthogonalEdgeStyle;rounded=0;orthogonalLoop=1;jettySize=auto;html=1;exitX=0;exitY=0.5;exitDx=0;exitDy=0;entryX=0.75;entryY=0;entryDx=0;entryDy=0;endArrow=none;endFill=0;" parent="1" source="8zqK-wX07eK1b1NDQU6Q-3" target="j9M38D2zPkjRZAN_-BtN-14" edge="1">
          <mxGeometry relative="1" as="geometry" />
        </mxCell>
        <mxCell id="8zqK-wX07eK1b1NDQU6Q-3" value="Email" style="ellipse;whiteSpace=wrap;html=1;" parent="1" vertex="1">
          <mxGeometry x="190" y="325" width="45" height="35" as="geometry" />
        </mxCell>
        <mxCell id="8zqK-wX07eK1b1NDQU6Q-10" style="edgeStyle=orthogonalEdgeStyle;rounded=0;orthogonalLoop=1;jettySize=auto;html=1;exitX=0.5;exitY=1;exitDx=0;exitDy=0;entryX=0.5;entryY=0;entryDx=0;entryDy=0;endArrow=none;endFill=0;" parent="1" source="8zqK-wX07eK1b1NDQU6Q-4" target="j9M38D2zPkjRZAN_-BtN-14" edge="1">
          <mxGeometry relative="1" as="geometry" />
        </mxCell>
        <mxCell id="8zqK-wX07eK1b1NDQU6Q-4" value="Номер телефона" style="ellipse;whiteSpace=wrap;html=1;" parent="1" vertex="1">
          <mxGeometry x="120" y="290" width="70" height="45" as="geometry" />
        </mxCell>
        <mxCell id="8zqK-wX07eK1b1NDQU6Q-27" style="edgeStyle=orthogonalEdgeStyle;rounded=0;orthogonalLoop=1;jettySize=auto;html=1;exitX=1;exitY=0.5;exitDx=0;exitDy=0;entryX=0.354;entryY=0.999;entryDx=0;entryDy=0;endArrow=none;endFill=0;entryPerimeter=0;" parent="1" source="8zqK-wX07eK1b1NDQU6Q-5" target="j9M38D2zPkjRZAN_-BtN-15" edge="1">
          <mxGeometry relative="1" as="geometry">
            <Array as="points">
              <mxPoint x="160" y="637.5" />
              <mxPoint x="160" y="587.5" />
            </Array>
          </mxGeometry>
        </mxCell>
        <mxCell id="8zqK-wX07eK1b1NDQU6Q-5" value="Email" style="ellipse;whiteSpace=wrap;html=1;" parent="1" vertex="1">
          <mxGeometry x="50" y="607.5" width="100" height="60" as="geometry" />
        </mxCell>
        <mxCell id="8zqK-wX07eK1b1NDQU6Q-25" style="edgeStyle=orthogonalEdgeStyle;rounded=0;orthogonalLoop=1;jettySize=auto;html=1;exitX=0;exitY=0.5;exitDx=0;exitDy=0;entryX=0.75;entryY=0;entryDx=0;entryDy=0;endArrow=none;endFill=0;" parent="1" source="8zqK-wX07eK1b1NDQU6Q-6" target="j9M38D2zPkjRZAN_-BtN-15" edge="1">
          <mxGeometry relative="1" as="geometry" />
        </mxCell>
        <mxCell id="8zqK-wX07eK1b1NDQU6Q-6" value="Название" style="ellipse;whiteSpace=wrap;html=1;" parent="1" vertex="1">
          <mxGeometry x="197.5" y="508.75" width="57.5" height="40" as="geometry" />
        </mxCell>
        <mxCell id="8zqK-wX07eK1b1NDQU6Q-24" style="edgeStyle=orthogonalEdgeStyle;rounded=0;orthogonalLoop=1;jettySize=auto;html=1;exitX=0.5;exitY=1;exitDx=0;exitDy=0;entryX=0.5;entryY=0;entryDx=0;entryDy=0;endArrow=none;endFill=0;" parent="1" source="8zqK-wX07eK1b1NDQU6Q-7" target="j9M38D2zPkjRZAN_-BtN-15" edge="1">
          <mxGeometry relative="1" as="geometry" />
        </mxCell>
        <mxCell id="8zqK-wX07eK1b1NDQU6Q-7" value="&lt;u&gt;ИНН&lt;/u&gt;" style="ellipse;whiteSpace=wrap;html=1;" parent="1" vertex="1">
          <mxGeometry x="142.5" y="470" width="55" height="40" as="geometry" />
        </mxCell>
        <mxCell id="8zqK-wX07eK1b1NDQU6Q-23" style="edgeStyle=orthogonalEdgeStyle;rounded=0;orthogonalLoop=1;jettySize=auto;html=1;exitX=1;exitY=0.5;exitDx=0;exitDy=0;entryX=0.25;entryY=0;entryDx=0;entryDy=0;endArrow=none;endFill=0;" parent="1" source="8zqK-wX07eK1b1NDQU6Q-8" target="j9M38D2zPkjRZAN_-BtN-15" edge="1">
          <mxGeometry relative="1" as="geometry" />
        </mxCell>
        <mxCell id="8zqK-wX07eK1b1NDQU6Q-8" value="ID" style="ellipse;whiteSpace=wrap;html=1;" parent="1" vertex="1">
          <mxGeometry x="92.5" y="510" width="50" height="37.5" as="geometry" />
        </mxCell>
        <mxCell id="ubvoqZsbdTk1Toc_hSM9-21" style="edgeStyle=orthogonalEdgeStyle;rounded=0;orthogonalLoop=1;jettySize=auto;html=1;entryX=0;entryY=0.5;entryDx=0;entryDy=0;endArrow=ERoneToMany;endFill=0;startArrow=ERone;startFill=0;" parent="1" source="8zqK-wX07eK1b1NDQU6Q-31" target="ubvoqZsbdTk1Toc_hSM9-13" edge="1">
          <mxGeometry relative="1" as="geometry" />
        </mxCell>
        <mxCell id="8zqK-wX07eK1b1NDQU6Q-31" value="Накладная" style="shape=trapezoid;perimeter=trapezoidPerimeter;whiteSpace=wrap;html=1;fixedSize=1;" parent="1" vertex="1">
          <mxGeometry x="545.5" y="435" width="90" height="50" as="geometry" />
        </mxCell>
        <mxCell id="ubvoqZsbdTk1Toc_hSM9-18" style="edgeStyle=orthogonalEdgeStyle;rounded=0;orthogonalLoop=1;jettySize=auto;html=1;exitX=0;exitY=0.5;exitDx=0;exitDy=0;entryX=0.667;entryY=1.004;entryDx=0;entryDy=0;endArrow=none;endFill=0;entryPerimeter=0;" parent="1" source="ubvoqZsbdTk1Toc_hSM9-1" target="8zqK-wX07eK1b1NDQU6Q-31" edge="1">
          <mxGeometry relative="1" as="geometry">
            <Array as="points">
              <mxPoint x="605.5" y="519" />
            </Array>
          </mxGeometry>
        </mxCell>
        <mxCell id="ubvoqZsbdTk1Toc_hSM9-1" value="ID" style="ellipse;whiteSpace=wrap;html=1;" parent="1" vertex="1">
          <mxGeometry x="615.5" y="500" width="40" height="36.25" as="geometry" />
        </mxCell>
        <mxCell id="ubvoqZsbdTk1Toc_hSM9-17" style="edgeStyle=orthogonalEdgeStyle;rounded=0;orthogonalLoop=1;jettySize=auto;html=1;entryX=0.334;entryY=1.003;entryDx=0;entryDy=0;endArrow=none;endFill=0;entryPerimeter=0;exitX=1;exitY=0.5;exitDx=0;exitDy=0;" parent="1" source="ubvoqZsbdTk1Toc_hSM9-2" target="8zqK-wX07eK1b1NDQU6Q-31" edge="1">
          <mxGeometry relative="1" as="geometry">
            <mxPoint x="575.5" y="537" as="sourcePoint" />
            <Array as="points">
              <mxPoint x="575.5" y="519" />
            </Array>
          </mxGeometry>
        </mxCell>
        <mxCell id="ubvoqZsbdTk1Toc_hSM9-2" value="Количество мебели" style="ellipse;whiteSpace=wrap;html=1;" parent="1" vertex="1">
          <mxGeometry x="485.5" y="488.75" width="80" height="60" as="geometry" />
        </mxCell>
        <mxCell id="ubvoqZsbdTk1Toc_hSM9-20" style="edgeStyle=orthogonalEdgeStyle;rounded=0;orthogonalLoop=1;jettySize=auto;html=1;exitX=0.5;exitY=1;exitDx=0;exitDy=0;entryX=0.5;entryY=0;entryDx=0;entryDy=0;endArrow=none;endFill=0;" parent="1" source="ubvoqZsbdTk1Toc_hSM9-3" target="8zqK-wX07eK1b1NDQU6Q-31" edge="1">
          <mxGeometry relative="1" as="geometry">
            <Array as="points">
              <mxPoint x="590" y="420" />
              <mxPoint x="590" y="420" />
            </Array>
          </mxGeometry>
        </mxCell>
        <mxCell id="ubvoqZsbdTk1Toc_hSM9-3" value="&lt;u&gt;Номер документа&lt;/u&gt;" style="ellipse;whiteSpace=wrap;html=1;" parent="1" vertex="1">
          <mxGeometry x="555" y="351.88" width="70" height="63.12" as="geometry" />
        </mxCell>
        <mxCell id="ubvoqZsbdTk1Toc_hSM9-25" style="edgeStyle=orthogonalEdgeStyle;rounded=0;orthogonalLoop=1;jettySize=auto;html=1;exitX=0.5;exitY=0;exitDx=0;exitDy=0;entryX=0;entryY=0.75;entryDx=0;entryDy=0;endArrow=none;endFill=0;" parent="1" source="ubvoqZsbdTk1Toc_hSM9-5" target="ubvoqZsbdTk1Toc_hSM9-13" edge="1">
          <mxGeometry relative="1" as="geometry">
            <Array as="points">
              <mxPoint x="705" y="470" />
            </Array>
          </mxGeometry>
        </mxCell>
        <mxCell id="ubvoqZsbdTk1Toc_hSM9-5" value="Размеры" style="ellipse;whiteSpace=wrap;html=1;" parent="1" vertex="1">
          <mxGeometry x="675" y="486" width="60" height="31.5" as="geometry" />
        </mxCell>
        <mxCell id="ubvoqZsbdTk1Toc_hSM9-24" style="edgeStyle=orthogonalEdgeStyle;rounded=0;orthogonalLoop=1;jettySize=auto;html=1;entryX=0.75;entryY=0;entryDx=0;entryDy=0;endArrow=none;endFill=0;" parent="1" source="ubvoqZsbdTk1Toc_hSM9-6" target="ubvoqZsbdTk1Toc_hSM9-13" edge="1">
          <mxGeometry relative="1" as="geometry">
            <Array as="points">
              <mxPoint x="793" y="420" />
            </Array>
          </mxGeometry>
        </mxCell>
        <mxCell id="ubvoqZsbdTk1Toc_hSM9-6" value="Цвет" style="ellipse;whiteSpace=wrap;html=1;" parent="1" vertex="1">
          <mxGeometry x="805" y="365" width="50" height="40" as="geometry" />
        </mxCell>
        <mxCell id="sLi8n0fQwu9TduTDUcF7-6" style="edgeStyle=orthogonalEdgeStyle;rounded=0;orthogonalLoop=1;jettySize=auto;html=1;exitX=0;exitY=0.5;exitDx=0;exitDy=0;entryX=1;entryY=0.75;entryDx=0;entryDy=0;endArrow=none;endFill=0;" parent="1" source="ubvoqZsbdTk1Toc_hSM9-8" target="ubvoqZsbdTk1Toc_hSM9-13" edge="1">
          <mxGeometry relative="1" as="geometry">
            <Array as="points">
              <mxPoint x="820" y="493" />
              <mxPoint x="820" y="468" />
            </Array>
          </mxGeometry>
        </mxCell>
        <mxCell id="ubvoqZsbdTk1Toc_hSM9-8" value="Тип мебели" style="ellipse;whiteSpace=wrap;html=1;" parent="1" vertex="1">
          <mxGeometry x="825" y="475" width="70" height="35" as="geometry" />
        </mxCell>
        <mxCell id="ubvoqZsbdTk1Toc_hSM9-22" style="edgeStyle=orthogonalEdgeStyle;rounded=0;orthogonalLoop=1;jettySize=auto;html=1;exitX=0.5;exitY=1;exitDx=0;exitDy=0;entryX=0;entryY=0;entryDx=0;entryDy=0;endArrow=none;endFill=0;" parent="1" source="ubvoqZsbdTk1Toc_hSM9-9" target="ubvoqZsbdTk1Toc_hSM9-13" edge="1">
          <mxGeometry relative="1" as="geometry">
            <Array as="points">
              <mxPoint x="730" y="445" />
            </Array>
          </mxGeometry>
        </mxCell>
        <mxCell id="ubvoqZsbdTk1Toc_hSM9-9" value="Название" style="ellipse;whiteSpace=wrap;html=1;" parent="1" vertex="1">
          <mxGeometry x="695" y="377.5" width="70" height="50" as="geometry" />
        </mxCell>
        <mxCell id="ubvoqZsbdTk1Toc_hSM9-23" style="edgeStyle=orthogonalEdgeStyle;rounded=0;orthogonalLoop=1;jettySize=auto;html=1;exitX=0.5;exitY=1;exitDx=0;exitDy=0;entryX=0.5;entryY=0;entryDx=0;entryDy=0;endArrow=none;endFill=0;" parent="1" source="ubvoqZsbdTk1Toc_hSM9-10" target="ubvoqZsbdTk1Toc_hSM9-13" edge="1">
          <mxGeometry relative="1" as="geometry" />
        </mxCell>
        <mxCell id="ubvoqZsbdTk1Toc_hSM9-10" value="ID" style="ellipse;whiteSpace=wrap;html=1;" parent="1" vertex="1">
          <mxGeometry x="772" y="365" width="30" height="25" as="geometry" />
        </mxCell>
        <mxCell id="ubvoqZsbdTk1Toc_hSM9-12" value="Заказ" style="shape=hexagon;perimeter=hexagonPerimeter2;whiteSpace=wrap;html=1;fixedSize=1;" parent="1" vertex="1">
          <mxGeometry x="345.5" y="431" width="80" height="58" as="geometry" />
        </mxCell>
        <mxCell id="ubvoqZsbdTk1Toc_hSM9-31" style="edgeStyle=orthogonalEdgeStyle;rounded=0;orthogonalLoop=1;jettySize=auto;html=1;exitX=0.5;exitY=1;exitDx=0;exitDy=0;entryX=0.5;entryY=0;entryDx=0;entryDy=0;endArrow=ERoneToMany;endFill=0;startArrow=ERone;startFill=0;" parent="1" source="ubvoqZsbdTk1Toc_hSM9-13" target="ubvoqZsbdTk1Toc_hSM9-14" edge="1">
          <mxGeometry relative="1" as="geometry">
            <Array as="points">
              <mxPoint x="770" y="590" />
              <mxPoint x="660" y="590" />
            </Array>
          </mxGeometry>
        </mxCell>
        <mxCell id="ubvoqZsbdTk1Toc_hSM9-13" value="Мебель" style="shape=parallelogram;perimeter=parallelogramPerimeter;whiteSpace=wrap;html=1;fixedSize=1;" parent="1" vertex="1">
          <mxGeometry x="725" y="437" width="90" height="46" as="geometry" />
        </mxCell>
        <mxCell id="ubvoqZsbdTk1Toc_hSM9-14" value="Метериал" style="rounded=0;whiteSpace=wrap;html=1;" parent="1" vertex="1">
          <mxGeometry x="625" y="635" width="70" height="50" as="geometry" />
        </mxCell>
        <mxCell id="ubvoqZsbdTk1Toc_hSM9-30" style="edgeStyle=orthogonalEdgeStyle;rounded=0;orthogonalLoop=1;jettySize=auto;html=1;exitX=0.5;exitY=1;exitDx=0;exitDy=0;entryX=1;entryY=0.25;entryDx=0;entryDy=0;endArrow=none;endFill=0;" parent="1" source="ubvoqZsbdTk1Toc_hSM9-16" target="ubvoqZsbdTk1Toc_hSM9-13" edge="1">
          <mxGeometry relative="1" as="geometry">
            <Array as="points">
              <mxPoint x="870" y="450" />
            </Array>
          </mxGeometry>
        </mxCell>
        <mxCell id="ubvoqZsbdTk1Toc_hSM9-16" value="&lt;u&gt;Артикул&lt;/u&gt;" style="ellipse;whiteSpace=wrap;html=1;" parent="1" vertex="1">
          <mxGeometry x="845" y="392" width="50" height="45" as="geometry" />
        </mxCell>
        <mxCell id="ubvoqZsbdTk1Toc_hSM9-52" style="edgeStyle=orthogonalEdgeStyle;rounded=0;orthogonalLoop=1;jettySize=auto;html=1;exitX=0;exitY=0.5;exitDx=0;exitDy=0;entryX=0.75;entryY=0;entryDx=0;entryDy=0;endArrow=none;endFill=0;" parent="1" source="ubvoqZsbdTk1Toc_hSM9-32" target="ubvoqZsbdTk1Toc_hSM9-14" edge="1">
          <mxGeometry relative="1" as="geometry" />
        </mxCell>
        <mxCell id="ubvoqZsbdTk1Toc_hSM9-32" value="&lt;u&gt;ID&lt;/u&gt;" style="ellipse;whiteSpace=wrap;html=1;" parent="1" vertex="1">
          <mxGeometry x="690" y="600" width="30" height="30" as="geometry" />
        </mxCell>
        <mxCell id="ubvoqZsbdTk1Toc_hSM9-59" style="edgeStyle=orthogonalEdgeStyle;rounded=0;orthogonalLoop=1;jettySize=auto;html=1;exitX=1;exitY=0.5;exitDx=0;exitDy=0;entryX=0;entryY=0.25;entryDx=0;entryDy=0;endArrow=none;endFill=0;" parent="1" source="ubvoqZsbdTk1Toc_hSM9-33" target="ubvoqZsbdTk1Toc_hSM9-14" edge="1">
          <mxGeometry relative="1" as="geometry">
            <Array as="points">
              <mxPoint x="610" y="640" />
              <mxPoint x="610" y="647" />
            </Array>
          </mxGeometry>
        </mxCell>
        <mxCell id="ubvoqZsbdTk1Toc_hSM9-33" value="Название материала" style="ellipse;whiteSpace=wrap;html=1;" parent="1" vertex="1">
          <mxGeometry x="520" y="615" width="75.5" height="45" as="geometry" />
        </mxCell>
        <mxCell id="sLi8n0fQwu9TduTDUcF7-7" style="edgeStyle=orthogonalEdgeStyle;rounded=0;orthogonalLoop=1;jettySize=auto;html=1;exitX=1;exitY=0.5;exitDx=0;exitDy=0;entryX=0.25;entryY=0;entryDx=0;entryDy=0;endArrow=none;endFill=0;" parent="1" source="ubvoqZsbdTk1Toc_hSM9-34" target="ubvoqZsbdTk1Toc_hSM9-14" edge="1">
          <mxGeometry relative="1" as="geometry">
            <Array as="points">
              <mxPoint x="643" y="586" />
              <mxPoint x="643" y="635" />
            </Array>
          </mxGeometry>
        </mxCell>
        <mxCell id="ubvoqZsbdTk1Toc_hSM9-34" value="Цвет материала" style="ellipse;whiteSpace=wrap;html=1;" parent="1" vertex="1">
          <mxGeometry x="549.5" y="565" width="75.5" height="42.5" as="geometry" />
        </mxCell>
        <mxCell id="ubvoqZsbdTk1Toc_hSM9-57" style="edgeStyle=orthogonalEdgeStyle;rounded=0;orthogonalLoop=1;jettySize=auto;html=1;exitX=0;exitY=0.5;exitDx=0;exitDy=0;entryX=1;entryY=0.5;entryDx=0;entryDy=0;endArrow=none;endFill=0;" parent="1" source="ubvoqZsbdTk1Toc_hSM9-35" target="ubvoqZsbdTk1Toc_hSM9-14" edge="1">
          <mxGeometry relative="1" as="geometry" />
        </mxCell>
        <mxCell id="ubvoqZsbdTk1Toc_hSM9-35" value="Стоимость за единицу" style="ellipse;whiteSpace=wrap;html=1;" parent="1" vertex="1">
          <mxGeometry x="710" y="630" width="73" height="60" as="geometry" />
        </mxCell>
        <mxCell id="ubvoqZsbdTk1Toc_hSM9-68" style="edgeStyle=orthogonalEdgeStyle;rounded=0;orthogonalLoop=1;jettySize=auto;html=1;exitX=1;exitY=0;exitDx=0;exitDy=0;entryX=0.25;entryY=1;entryDx=0;entryDy=0;endArrow=none;endFill=0;" parent="1" source="ubvoqZsbdTk1Toc_hSM9-36" target="ubvoqZsbdTk1Toc_hSM9-14" edge="1">
          <mxGeometry relative="1" as="geometry" />
        </mxCell>
        <mxCell id="ubvoqZsbdTk1Toc_hSM9-36" value="Количество&lt;br&gt;материала на складе" style="ellipse;whiteSpace=wrap;html=1;" parent="1" vertex="1">
          <mxGeometry x="565.5" y="730" width="80" height="60" as="geometry" />
        </mxCell>
        <mxCell id="ubvoqZsbdTk1Toc_hSM9-38" style="edgeStyle=orthogonalEdgeStyle;rounded=0;orthogonalLoop=1;jettySize=auto;html=1;endArrow=none;endFill=0;startArrow=ERoneToMany;startFill=0;exitX=0.5;exitY=0;exitDx=0;exitDy=0;" parent="1" source="ubvoqZsbdTk1Toc_hSM9-37" edge="1">
          <mxGeometry relative="1" as="geometry">
            <mxPoint x="770" y="590" as="targetPoint" />
            <mxPoint x="880" y="630" as="sourcePoint" />
            <Array as="points">
              <mxPoint x="920" y="590" />
            </Array>
          </mxGeometry>
        </mxCell>
        <mxCell id="ubvoqZsbdTk1Toc_hSM9-64" style="edgeStyle=orthogonalEdgeStyle;rounded=0;orthogonalLoop=1;jettySize=auto;html=1;exitX=0.5;exitY=1;exitDx=0;exitDy=0;endArrow=none;endFill=0;startArrow=ERoneToMany;startFill=0;" parent="1" source="ubvoqZsbdTk1Toc_hSM9-37" edge="1">
          <mxGeometry relative="1" as="geometry">
            <mxPoint x="770" y="780" as="targetPoint" />
            <Array as="points">
              <mxPoint x="920" y="780" />
              <mxPoint x="770" y="780" />
            </Array>
          </mxGeometry>
        </mxCell>
        <mxCell id="ubvoqZsbdTk1Toc_hSM9-37" value="Фурнитура" style="rounded=0;whiteSpace=wrap;html=1;" parent="1" vertex="1">
          <mxGeometry x="885" y="637.5" width="70" height="50" as="geometry" />
        </mxCell>
        <mxCell id="ubvoqZsbdTk1Toc_hSM9-61" style="edgeStyle=orthogonalEdgeStyle;rounded=0;orthogonalLoop=1;jettySize=auto;html=1;exitX=0;exitY=0.5;exitDx=0;exitDy=0;entryX=1;entryY=0.25;entryDx=0;entryDy=0;endArrow=none;endFill=0;" parent="1" source="ubvoqZsbdTk1Toc_hSM9-39" target="ubvoqZsbdTk1Toc_hSM9-37" edge="1">
          <mxGeometry relative="1" as="geometry">
            <Array as="points">
              <mxPoint x="970" y="640" />
              <mxPoint x="970" y="650" />
            </Array>
          </mxGeometry>
        </mxCell>
        <mxCell id="ubvoqZsbdTk1Toc_hSM9-39" value="Название фурнитуры" style="ellipse;whiteSpace=wrap;html=1;" parent="1" vertex="1">
          <mxGeometry x="990" y="615" width="80" height="50" as="geometry" />
        </mxCell>
        <mxCell id="ubvoqZsbdTk1Toc_hSM9-54" style="edgeStyle=orthogonalEdgeStyle;rounded=0;orthogonalLoop=1;jettySize=auto;html=1;exitX=1;exitY=0.5;exitDx=0;exitDy=0;entryX=0.25;entryY=0;entryDx=0;entryDy=0;endArrow=none;endFill=0;" parent="1" source="ubvoqZsbdTk1Toc_hSM9-40" target="ubvoqZsbdTk1Toc_hSM9-37" edge="1">
          <mxGeometry relative="1" as="geometry" />
        </mxCell>
        <mxCell id="ubvoqZsbdTk1Toc_hSM9-40" value="&lt;u&gt;ID&lt;/u&gt;" style="ellipse;whiteSpace=wrap;html=1;" parent="1" vertex="1">
          <mxGeometry x="865" y="600" width="30" height="30" as="geometry" />
        </mxCell>
        <mxCell id="ubvoqZsbdTk1Toc_hSM9-55" style="edgeStyle=orthogonalEdgeStyle;rounded=0;orthogonalLoop=1;jettySize=auto;html=1;exitX=0;exitY=0.5;exitDx=0;exitDy=0;entryX=0.75;entryY=0;entryDx=0;entryDy=0;endArrow=none;endFill=0;" parent="1" source="ubvoqZsbdTk1Toc_hSM9-41" target="ubvoqZsbdTk1Toc_hSM9-37" edge="1">
          <mxGeometry relative="1" as="geometry" />
        </mxCell>
        <mxCell id="ubvoqZsbdTk1Toc_hSM9-41" value="Цвет фурнитуры" style="ellipse;whiteSpace=wrap;html=1;" parent="1" vertex="1">
          <mxGeometry x="970" y="567.5" width="80" height="40" as="geometry" />
        </mxCell>
        <mxCell id="ubvoqZsbdTk1Toc_hSM9-66" style="edgeStyle=orthogonalEdgeStyle;rounded=0;orthogonalLoop=1;jettySize=auto;html=1;exitX=0;exitY=0;exitDx=0;exitDy=0;entryX=0.75;entryY=1;entryDx=0;entryDy=0;endArrow=none;endFill=0;" parent="1" source="ubvoqZsbdTk1Toc_hSM9-42" target="ubvoqZsbdTk1Toc_hSM9-37" edge="1">
          <mxGeometry relative="1" as="geometry" />
        </mxCell>
        <mxCell id="ubvoqZsbdTk1Toc_hSM9-42" value="Количество фурнитуры на складе" style="ellipse;whiteSpace=wrap;html=1;" parent="1" vertex="1">
          <mxGeometry x="935" y="730" width="80" height="60" as="geometry" />
        </mxCell>
        <mxCell id="ubvoqZsbdTk1Toc_hSM9-58" style="edgeStyle=orthogonalEdgeStyle;rounded=0;orthogonalLoop=1;jettySize=auto;html=1;exitX=1;exitY=0.5;exitDx=0;exitDy=0;entryX=0;entryY=0.5;entryDx=0;entryDy=0;endArrow=none;endFill=0;" parent="1" source="ubvoqZsbdTk1Toc_hSM9-43" target="ubvoqZsbdTk1Toc_hSM9-37" edge="1">
          <mxGeometry relative="1" as="geometry" />
        </mxCell>
        <mxCell id="ubvoqZsbdTk1Toc_hSM9-43" value="Стоимость за единицу" style="ellipse;whiteSpace=wrap;html=1;" parent="1" vertex="1">
          <mxGeometry x="793.5" y="632.5" width="73" height="60" as="geometry" />
        </mxCell>
        <mxCell id="ubvoqZsbdTk1Toc_hSM9-60" style="edgeStyle=orthogonalEdgeStyle;rounded=0;orthogonalLoop=1;jettySize=auto;html=1;exitX=1;exitY=0;exitDx=0;exitDy=0;entryX=0;entryY=0.75;entryDx=0;entryDy=0;endArrow=none;endFill=0;" parent="1" source="ubvoqZsbdTk1Toc_hSM9-44" target="ubvoqZsbdTk1Toc_hSM9-14" edge="1">
          <mxGeometry relative="1" as="geometry">
            <Array as="points">
              <mxPoint x="610" y="683" />
              <mxPoint x="610" y="672" />
            </Array>
          </mxGeometry>
        </mxCell>
        <mxCell id="ubvoqZsbdTk1Toc_hSM9-44" value="Тип материала" style="ellipse;whiteSpace=wrap;html=1;" parent="1" vertex="1">
          <mxGeometry x="535" y="675" width="70" height="55" as="geometry" />
        </mxCell>
        <mxCell id="ubvoqZsbdTk1Toc_hSM9-62" style="edgeStyle=orthogonalEdgeStyle;rounded=0;orthogonalLoop=1;jettySize=auto;html=1;exitX=0;exitY=0;exitDx=0;exitDy=0;entryX=1;entryY=0.75;entryDx=0;entryDy=0;endArrow=none;endFill=0;" parent="1" source="ubvoqZsbdTk1Toc_hSM9-45" target="ubvoqZsbdTk1Toc_hSM9-37" edge="1">
          <mxGeometry relative="1" as="geometry">
            <Array as="points">
              <mxPoint x="970" y="683" />
              <mxPoint x="970" y="675" />
            </Array>
          </mxGeometry>
        </mxCell>
        <mxCell id="ubvoqZsbdTk1Toc_hSM9-45" value="Тип фурнитуры" style="ellipse;whiteSpace=wrap;html=1;" parent="1" vertex="1">
          <mxGeometry x="975" y="675" width="70" height="55" as="geometry" />
        </mxCell>
        <mxCell id="ubvoqZsbdTk1Toc_hSM9-67" style="edgeStyle=orthogonalEdgeStyle;rounded=0;orthogonalLoop=1;jettySize=auto;html=1;exitX=0;exitY=0;exitDx=0;exitDy=0;entryX=0.75;entryY=1;entryDx=0;entryDy=0;endArrow=none;endFill=0;" parent="1" source="ubvoqZsbdTk1Toc_hSM9-46" target="ubvoqZsbdTk1Toc_hSM9-14" edge="1">
          <mxGeometry relative="1" as="geometry" />
        </mxCell>
        <mxCell id="ubvoqZsbdTk1Toc_hSM9-46" value="ИНН поставщика" style="ellipse;whiteSpace=wrap;html=1;" parent="1" vertex="1">
          <mxGeometry x="685" y="700" width="80" height="65" as="geometry" />
        </mxCell>
        <mxCell id="ubvoqZsbdTk1Toc_hSM9-65" style="edgeStyle=orthogonalEdgeStyle;rounded=0;orthogonalLoop=1;jettySize=auto;html=1;exitX=1;exitY=0;exitDx=0;exitDy=0;entryX=0.25;entryY=1;entryDx=0;entryDy=0;endArrow=none;endFill=0;" parent="1" source="ubvoqZsbdTk1Toc_hSM9-47" target="ubvoqZsbdTk1Toc_hSM9-37" edge="1">
          <mxGeometry relative="1" as="geometry" />
        </mxCell>
        <mxCell id="ubvoqZsbdTk1Toc_hSM9-47" value="ИНН поставщика" style="ellipse;whiteSpace=wrap;html=1;" parent="1" vertex="1">
          <mxGeometry x="815" y="700" width="80" height="65" as="geometry" />
        </mxCell>
        <mxCell id="ubvoqZsbdTk1Toc_hSM9-63" style="edgeStyle=orthogonalEdgeStyle;rounded=0;orthogonalLoop=1;jettySize=auto;html=1;exitX=0.5;exitY=0;exitDx=0;exitDy=0;entryX=0.5;entryY=1;entryDx=0;entryDy=0;endArrow=ERoneToMany;endFill=0;startArrow=ERone;startFill=0;" parent="1" source="ubvoqZsbdTk1Toc_hSM9-48" target="ubvoqZsbdTk1Toc_hSM9-14" edge="1">
          <mxGeometry relative="1" as="geometry">
            <Array as="points">
              <mxPoint x="770" y="780" />
              <mxPoint x="660" y="780" />
            </Array>
          </mxGeometry>
        </mxCell>
        <mxCell id="ubvoqZsbdTk1Toc_hSM9-48" value="Поставщик" style="shape=parallelogram;perimeter=parallelogramPerimeter;whiteSpace=wrap;html=1;fixedSize=1;" parent="1" vertex="1">
          <mxGeometry x="720" y="800" width="100" height="55" as="geometry" />
        </mxCell>
        <mxCell id="ubvoqZsbdTk1Toc_hSM9-71" style="edgeStyle=orthogonalEdgeStyle;rounded=0;orthogonalLoop=1;jettySize=auto;html=1;exitX=1;exitY=0.5;exitDx=0;exitDy=0;entryX=0;entryY=0.5;entryDx=0;entryDy=0;endArrow=none;endFill=0;" parent="1" source="ubvoqZsbdTk1Toc_hSM9-49" target="ubvoqZsbdTk1Toc_hSM9-48" edge="1">
          <mxGeometry relative="1" as="geometry" />
        </mxCell>
        <mxCell id="ubvoqZsbdTk1Toc_hSM9-49" value="&lt;u&gt;ИНН&lt;/u&gt;" style="ellipse;whiteSpace=wrap;html=1;" parent="1" vertex="1">
          <mxGeometry x="655.5" y="808.75" width="35" height="37.5" as="geometry" />
        </mxCell>
        <mxCell id="ubvoqZsbdTk1Toc_hSM9-70" style="edgeStyle=orthogonalEdgeStyle;rounded=0;orthogonalLoop=1;jettySize=auto;html=1;exitX=0;exitY=0.5;exitDx=0;exitDy=0;entryX=1;entryY=0.5;entryDx=0;entryDy=0;endArrow=none;endFill=0;" parent="1" source="ubvoqZsbdTk1Toc_hSM9-50" target="ubvoqZsbdTk1Toc_hSM9-48" edge="1">
          <mxGeometry relative="1" as="geometry" />
        </mxCell>
        <mxCell id="ubvoqZsbdTk1Toc_hSM9-50" value="Адрес" style="ellipse;whiteSpace=wrap;html=1;" parent="1" vertex="1">
          <mxGeometry x="845" y="807.5" width="50" height="40" as="geometry" />
        </mxCell>
        <mxCell id="ubvoqZsbdTk1Toc_hSM9-69" style="edgeStyle=orthogonalEdgeStyle;rounded=0;orthogonalLoop=1;jettySize=auto;html=1;exitX=0.5;exitY=0;exitDx=0;exitDy=0;entryX=0.25;entryY=1;entryDx=0;entryDy=0;endArrow=none;endFill=0;" parent="1" source="ubvoqZsbdTk1Toc_hSM9-51" target="ubvoqZsbdTk1Toc_hSM9-48" edge="1">
          <mxGeometry relative="1" as="geometry">
            <Array as="points">
              <mxPoint x="720" y="890" />
              <mxPoint x="720" y="870" />
              <mxPoint x="745" y="870" />
            </Array>
          </mxGeometry>
        </mxCell>
        <mxCell id="ubvoqZsbdTk1Toc_hSM9-51" value="Наименование" style="ellipse;whiteSpace=wrap;html=1;" parent="1" vertex="1">
          <mxGeometry x="672" y="890" width="93" height="50" as="geometry" />
        </mxCell>
        <mxCell id="sLi8n0fQwu9TduTDUcF7-2" style="edgeStyle=orthogonalEdgeStyle;rounded=0;orthogonalLoop=1;jettySize=auto;html=1;exitX=0.5;exitY=0;exitDx=0;exitDy=0;entryX=0.5;entryY=1;entryDx=0;entryDy=0;endArrow=none;endFill=0;" parent="1" source="EBYxzZvgC5rQosP6Jtg_-1" target="ubvoqZsbdTk1Toc_hSM9-12" edge="1">
          <mxGeometry relative="1" as="geometry" />
        </mxCell>
        <mxCell id="EBYxzZvgC5rQosP6Jtg_-1" value="категория заказчика" style="ellipse;whiteSpace=wrap;html=1;" parent="1" vertex="1">
          <mxGeometry x="347.5" y="517.5" width="76" height="40" as="geometry" />
        </mxCell>
        <mxCell id="q5jDmQ2U9BhoY51WfToX-2" style="edgeStyle=orthogonalEdgeStyle;rounded=0;orthogonalLoop=1;jettySize=auto;html=1;exitX=0.5;exitY=0;exitDx=0;exitDy=0;entryX=0.5;entryY=1;entryDx=0;entryDy=0;endArrow=none;endFill=0;" parent="1" source="q5jDmQ2U9BhoY51WfToX-1" target="ubvoqZsbdTk1Toc_hSM9-48" edge="1">
          <mxGeometry relative="1" as="geometry">
            <Array as="points">
              <mxPoint x="805" y="870" />
              <mxPoint x="770" y="870" />
            </Array>
          </mxGeometry>
        </mxCell>
        <mxCell id="q5jDmQ2U9BhoY51WfToX-1" value="ID" style="ellipse;whiteSpace=wrap;html=1;" parent="1" vertex="1">
          <mxGeometry x="790" y="900" width="30" height="30" as="geometry" />
        </mxCell>
      </root>
    </mxGraphModel>
  </diagram>
</mxfile>
